<?xml version="1.0" encoding="utf-8" ?>
<svg baseProfile="tiny" height="200px" version="1.2" width="200px" xmlns="http://www.w3.org/2000/svg" xmlns:ev="http://www.w3.org/2001/xml-events" xmlns:xlink="http://www.w3.org/1999/xlink"><defs /><ellipse cx="140.0" cy="100.0" fill="orange" rx="10" ry="30" transform="rotate(0.0,140.0,100.0)" /><ellipse cx="134.641" cy="120.0" fill="orange" rx="10" ry="30" transform="rotate(30.0,134.64101615137756,120.0)" /><ellipse cx="120.0" cy="134.641" fill="orange" rx="10" ry="30" transform="rotate(60.0,120.0,134.64101615137753)" /><ellipse cx="100.0" cy="140.0" fill="orange" rx="10" ry="30" transform="rotate(90.0,100.0,140.0)" /><ellipse cx="80.0" cy="134.641" fill="orange" rx="10" ry="30" transform="rotate(120.0,80.0,134.64101615137756)" /><ellipse cx="65.359" cy="120.0" fill="orange" rx="10" ry="30" transform="rotate(150.0,65.35898384862244,120.0)" /><ellipse cx="60.0" cy="100.0" fill="orange" rx="10" ry="30" transform="rotate(180.0,60.0,100.0)" /><ellipse cx="65.359" cy="80.0" fill="orange" rx="10" ry="30" transform="rotate(210.0,65.35898384862246,80.0)" /><ellipse cx="80.0" cy="65.359" fill="orange" rx="10" ry="30" transform="rotate(240.0,79.99999999999999,65.35898384862247)" /><ellipse cx="100.0" cy="60.0" fill="orange" rx="10" ry="30" transform="rotate(270.0,99.99999999999999,60.0)" /><ellipse cx="120.0" cy="65.359" fill="orange" rx="10" ry="30" transform="rotate(300.0,120.0,65.35898384862246)" /><ellipse cx="134.641" cy="80.0" fill="orange" rx="10" ry="30" transform="rotate(330.0,134.64101615137753,79.99999999999999)" /></svg>